# xmcd CD database file
#
# Track frame offsets:
#	150
#	38480
#	56925
#	91285
#	122052
#	138980
#	165927
#	192857
#
# Disc length: 2921 seconds
#
# Revision: 3
# Processed by: cddbd v1.5.2PL0 Copyright (c) Steve Scherf et al.
# Submitted via: CDex 1.70beta1
#
DISCID=620b6708
DTITLE=Bob Brookmeyer - Back Again
DYEAR=1978
DGENRE=Jazz
TTITLE0=Sweet and lovely
TTITLE1=Carib
TTITLE2=Caravan
TTITLE3=You'd be so nice to come home to
TTITLE4=Willow weep for me
TTITLE5=I love you
TTITLE6=In a rotten mood
TTITLE7=I love you (alternate take)
EXTD=YEAR: 1978
EXTT0=
EXTT1=
EXTT2=
EXTT3=
EXTT4=
EXTT5=
EXTT6=
EXTT7=
PLAYORDER=
